<svg width="21" height="20" viewBox="0 0 21 20" fill="none" xmlns="http://www.w3.org/2000/svg">
<path d="M0.5654 1.36921C0.247182 1.39061 0 1.65497 0 1.97394V19.3518C0 19.7025 0.296782 19.9801 0.646715 19.9565L20.0523 18.6519C20.4755 18.6235 20.7393 18.1802 20.5625 17.7947L16.8865 9.77679C16.8147 9.62 16.813 9.44006 16.8819 9.282L20.5302 0.913783C20.7118 0.497232 20.3874 0.0363951 19.934 0.06688L0.5654 1.36921Z" fill="#16A121"/>
<path d="M0.5654 1.36921C0.247182 1.39061 0 1.65497 0 1.97394V19.3518C0 19.7025 0.296782 19.9801 0.646715 19.9565L20.0523 18.6519C20.4755 18.6235 20.7393 18.1802 20.5625 17.7947L16.8865 9.77679C16.8147 9.62 16.813 9.44006 16.8819 9.282L20.5302 0.913783C20.7118 0.497232 20.3874 0.0363951 19.934 0.06688L0.5654 1.36921Z" fill="url(#paint0_linear_301_163)"/>
<path d="M0.5654 1.36921C0.247182 1.39061 0 1.65497 0 1.97394V19.3518C0 19.7025 0.296782 19.9801 0.646715 19.9565L20.0523 18.6519C20.4755 18.6235 20.7393 18.1802 20.5625 17.7947L16.8865 9.77679C16.8147 9.62 16.813 9.44006 16.8819 9.282L20.5302 0.913783C20.7118 0.497232 20.3874 0.0363951 19.934 0.06688L0.5654 1.36921Z" fill="url(#paint1_radial_301_163)"/>
<path d="M0.5654 1.36921C0.247182 1.39061 0 1.65497 0 1.97394V19.3518C0 19.7025 0.296782 19.9801 0.646715 19.9565L20.0523 18.6519C20.4755 18.6235 20.7393 18.1802 20.5625 17.7947L16.8865 9.77679C16.8147 9.62 16.813 9.44006 16.8819 9.282L20.5302 0.913783C20.7118 0.497232 20.3874 0.0363951 19.934 0.06688L0.5654 1.36921Z" fill="url(#paint2_radial_301_163)"/>
<path d="M0.5654 1.36921C0.247182 1.39061 0 1.65497 0 1.97394V19.3518C0 19.7025 0.296782 19.9801 0.646715 19.9565L20.0523 18.6519C20.4755 18.6235 20.7393 18.1802 20.5625 17.7947L16.8865 9.77679C16.8147 9.62 16.813 9.44006 16.8819 9.282L20.5302 0.913783C20.7118 0.497232 20.3874 0.0363951 19.934 0.06688L0.5654 1.36921Z" fill="url(#paint3_radial_301_163)"/>
<path d="M0.5654 1.36921C0.247182 1.39061 0 1.65497 0 1.97394V19.3518C0 19.7025 0.296782 19.9801 0.646715 19.9565L20.0523 18.6519C20.4755 18.6235 20.7393 18.1802 20.5625 17.7947L16.8865 9.77679C16.8147 9.62 16.813 9.44006 16.8819 9.282L20.5302 0.913783C20.7118 0.497232 20.3874 0.0363951 19.934 0.06688L0.5654 1.36921Z" fill="url(#paint4_radial_301_163)"/>
<path d="M0.5654 1.36921C0.247182 1.39061 0 1.65497 0 1.97394V19.3518C0 19.7025 0.296782 19.9801 0.646715 19.9565L20.0523 18.6519C20.4755 18.6235 20.7393 18.1802 20.5625 17.7947L16.8865 9.77679C16.8147 9.62 16.813 9.44006 16.8819 9.282L20.5302 0.913783C20.7118 0.497232 20.3874 0.0363951 19.934 0.06688L0.5654 1.36921Z" fill="url(#paint5_radial_301_163)"/>
<path d="M8.50003 6.5C8.5001 6.28973 8.48132 6.07987 8.44392 5.87294L7.69054 6.42816C7.69118 6.45204 7.69151 6.47599 7.69151 6.5C7.69151 7.98415 6.48411 9.19152 5.00003 9.19152C3.51592 9.19152 2.30852 7.98412 2.30852 6.5C2.30852 5.01589 3.51592 3.80849 5.00003 3.80849C5.5417 3.80791 6.0708 3.9717 6.51738 4.27827L7.19815 3.7765C6.57629 3.27303 5.80014 2.99882 5.00003 3C3.06701 3 1.5 4.56701 1.5 6.5C1.5 8.43299 3.06701 10 5.00003 10C6.93302 10 8.50003 8.43299 8.50003 6.5Z" fill="white"/>
<path d="M7.72485 4.35339C7.89654 4.57511 8.04186 4.81609 8.15778 5.07145L4.86626 7.49727L3.49112 6.63511V5.59802L4.86626 6.46014L7.72485 4.35339Z" fill="white"/>
<defs>
<linearGradient id="paint0_linear_301_163" x1="0.0994548" y1="1.18136e-06" x2="0.0994548" y2="20" gradientUnits="userSpaceOnUse">
<stop stop-color="#4DC337"/>
<stop offset="1" stop-color="#79D922"/>
</linearGradient>
<radialGradient id="paint1_radial_301_163" cx="0" cy="0" r="1" gradientUnits="userSpaceOnUse" gradientTransform="translate(17.3399 10.9769) rotate(140.113) scale(15.2331 15.1459)">
<stop offset="0.0291242" stop-color="#43E9AA"/>
<stop offset="1" stop-color="#43E9AA" stop-opacity="0.01"/>
</radialGradient>
<radialGradient id="paint2_radial_301_163" cx="0" cy="0" r="1" gradientUnits="userSpaceOnUse" gradientTransform="translate(0.905563 1.62374e-06) rotate(57.4259) scale(11.8362 12.0221)">
<stop stop-color="#3DE9AF"/>
<stop offset="1" stop-color="#3FE9AF" stop-opacity="0.01"/>
</radialGradient>
<radialGradient id="paint3_radial_301_163" cx="0" cy="0" r="1" gradientUnits="userSpaceOnUse" gradientTransform="translate(20.6435 19.4602) rotate(-126.898) scale(13.6427 13.7879)">
<stop stop-color="#15A214"/>
<stop offset="1" stop-color="#15A214" stop-opacity="0.01"/>
</radialGradient>
<radialGradient id="paint4_radial_301_163" cx="0" cy="0" r="1" gradientUnits="userSpaceOnUse" gradientTransform="translate(19.9868) rotate(118.409) scale(17.6507 18.0082)">
<stop offset="0.228758" stop-color="#0087CD"/>
<stop offset="1" stop-color="#049CEE" stop-opacity="0.01"/>
</radialGradient>
<radialGradient id="paint5_radial_301_163" cx="0" cy="0" r="1" gradientUnits="userSpaceOnUse" gradientTransform="translate(0.967945 19.1) rotate(-50.6453) scale(10.3138 10.3928)">
<stop stop-color="#FEF600"/>
<stop offset="1" stop-color="#FEF600" stop-opacity="0.01"/>
</radialGradient>
</defs>
</svg>
